<svg xmlns="http://www.w3.org/2000/svg" width="30.305" height="26.938" viewBox="0 0 30.305 26.938">
  <path id="Icon_awesome-shopping-cart" data-name="Icon awesome-shopping-cart" d="M27.786,15.853,30.273,4.91a1.263,1.263,0,0,0-1.231-1.543H8.376L7.894,1.01A1.263,1.263,0,0,0,6.657,0H1.263A1.263,1.263,0,0,0,0,1.263V2.1A1.263,1.263,0,0,0,1.263,3.367H4.939l3.7,18.069a2.947,2.947,0,1,0,3.527.451h11.03a2.946,2.946,0,1,0,3.346-.547l.29-1.277A1.263,1.263,0,0,0,25.6,18.52H11.476l-.344-1.684H26.554A1.263,1.263,0,0,0,27.786,15.853Z" fill="#fff"/>
</svg>
