<svg xmlns="http://www.w3.org/2000/svg" width="26.938" height="26.938" viewBox="0 0 26.938 26.938">
  <path id="Icon_awesome-user-circle" data-name="Icon awesome-user-circle" d="M13.469.563A13.469,13.469,0,1,0,26.938,14.031,13.466,13.466,0,0,0,13.469.563Zm0,5.214A4.779,4.779,0,1,1,8.69,10.555,4.779,4.779,0,0,1,13.469,5.776Zm0,18.682a10.407,10.407,0,0,1-7.956-3.7,6.055,6.055,0,0,1,5.349-3.248,1.329,1.329,0,0,1,.386.06,7.191,7.191,0,0,0,2.221.375,7.163,7.163,0,0,0,2.221-.375,1.329,1.329,0,0,1,.386-.06,6.055,6.055,0,0,1,5.349,3.248A10.407,10.407,0,0,1,13.469,24.459Z" transform="translate(0 -0.563)" fill="#fff"/>
</svg>
